<svg xmlns="http://www.w3.org/2000/svg" xmlns:xlink="http://www.w3.org/1999/xlink" viewBox="0 0 747.76 711.68"><defs><style>.cls-1{fill:none;}.cls-2{clip-path:url(#clip-path);}.cls-3{fill:#1d1d1b;fill-rule:evenodd;}.cls-4{fill:#3c3c3b;}.cls-5{clip-path:url(#clip-path-2);}.cls-6{fill:url(#Nepojmenovaný_přechod_8);}</style><clipPath id="clip-path" transform="translate(43.76 120.35)"><rect class="cls-1" width="704" height="497.78"/></clipPath><clipPath id="clip-path-2" transform="translate(43.76 120.35)"><path class="cls-1" d="M423.5,89.42a11.43,11.43,0,0,1-5.85-4.75c-1.07-1.78-2.1-3.19-4.52-3.47-1.46-.17-2.85-1.46-4.15-2.42a2,2,0,0,1-.48-2.35c.29-.79,1-.62,2-.62,3.81,1.83,9,1.76,12.09,5.57,1.52,1.86,2.22,4.5,2.9,6.9.29,1-.22,1.36-.89,1.36a3.15,3.15,0,0,1-1.07-.22M309.24,35.26a13.44,13.44,0,0,1-4.57,2.65c-5,1.86-10.27,2.78-15.3,4.55-3.6,1.27-6,4.19-5.7,8,1.44,5.34,4.41,9.92,7.32,14.52,0,.82.8,1.62.19,2.44-1.18,1.59-1.8,3.55-3.29,5a25.37,25.37,0,0,0-4.28,4.8,7.74,7.74,0,0,0-.83,1.1c-.46.93-1.68,1.84-.85,2.9s2.19.38,3.24,0a35.72,35.72,0,0,0,8-4.12c1-.68,2.11-1.37,3.42-.61l.88,1.1c0,2.71.42,5.43-.17,8.1-.19.85-.25,1.53.41,2.11a1.87,1.87,0,0,0,2.35,0c2.72-1.42,3.17-1,3.57,1.94.27,2,.46,4.3,3.46,4.32,1.19,0,1.78.86,1.67,2a2.35,2.35,0,0,0,1.49,2.64c3.27,1.15,3.44,2.21,6.29-.86a10.78,10.78,0,0,1,7.37-3.84,3.64,3.64,0,0,1,3.51,1.22c.85,1.1.09,2-.43,3a4.17,4.17,0,0,0-.8,1.89c.28,3.76-2,6.34-4,9.09-4,4-8.89,6.62-13.5,9.68,0,.2,0,.4.05.61l0,0,0,0c0-.21,0-.41-.05-.61l-.54.61a1.35,1.35,0,0,0-1.49.7l-.06.06c-.42-.19-.54.14-.69.41l-.55.63h-.11c-.32,0-.63,0-.72.43-3.32,1.26-4.74,3.56-4.29,7.16.23,1.77.66,3.67-.47,5.37a1.53,1.53,0,0,0-.93,1l-.05.05A13.34,13.34,0,0,0,296,138c-1,1-2.35,1.6-3.57,1-3-1.43-5.89-3.14-8.82-4.74-2.76-5.14-2-9.78,2.37-14,1.67-1.61,3.53-3,5.1-4.72s1.4-3.16-.45-4.46a3.17,3.17,0,0,1-1.46-2.47,6.51,6.51,0,0,0-3.77-5.86c.12-.83-.16-1.7.31-2.51,1.76-3.06,1.68-3.18-2-3.19s-7.21-2.09-7.86-5c-.8-3.57-3.3-5.37-6.1-7.17-3.26-2.1-7.12-1.92-10.59-3.14a9.16,9.16,0,0,0-5.83,0c-5.81,1.64-10.1,5.41-13.82,9.84a24,24,0,0,0-5.41,10.14,4.89,4.89,0,0,0-.93,2.86,5.85,5.85,0,0,0-.8,2.79c-.65,4-.47,7.79,2.11,11.1,2.44,3.13,4.3,6.62,6.43,10,.92,1.44,1.05,2.49-.42,3.55-2,1.44-2.25,3.43-1.51,5.61q.79,2.31,1.78,4.53c.51,1.14.81,2.51.1,3.35-1.55,1.84-.83,3.33.1,5,.59,1.08,1,2.27,1.5,3.4.3.7.4,1.82,1.18,1.86,1,0,.91-1.25,1.34-1.92a2.52,2.52,0,0,0,.33-1.11,5.62,5.62,0,0,1,2.89-4.67,4.2,4.2,0,0,0,2.18-4.73,3,3,0,0,1,1-3.16,13.8,13.8,0,0,0,3.84-5.18c.72-1.42,2.08-2,3.29-1.24,2.34,1.54,4.4,3.49,4.53,6.62.24,6.26.5,12.5-.34,18.76-.38,2.9-1,6.13,1.1,8.75,2.3,2.84,3.91,6.17,6.48,8.8.68.7,1.43,1.62.91,2.71-1.15,2.36-2.06,5-3.72,6.91a15.71,15.71,0,0,0-3.35,7.55c-.63,3.35-.64,6.7,2.43,9.38,2.34,2,4.64,4.11,7.05,6.08,1.36,1.1,2.41,2.51,4.17,3.24a24.46,24.46,0,0,0,10.39,1.85,6.91,6.91,0,0,0,6.92-7.34c-.1-2.59.34-3,3-2.43a16.05,16.05,0,0,0,7.36-.09c2.42-.63,3.29.08,3.17,2.6-.09,1.71-.25,3.41-.3,5.11-.16,4.74-1.52,8.5-5.54,11.82a31.82,31.82,0,0,0-10.88,16.67c-.93,3.59-2,7.13-1.87,10.9a5.14,5.14,0,0,1-1.45,3.55c-.81.92-2.19,1.46-2.2,3a2.62,2.62,0,0,1-2.43,2.68c-2.07.3-2.78,1.73-3.1,3.49-.19,1.08-.27,2.28-1.13,3-2.29,1.82-3.67,4.38-5.6,6.48-4,4.41-8.75,8.16-12.59,12.77-1.36,1.36-1.57,3.35-2.68,4.84a109.84,109.84,0,0,0-9.53,15.95,34.62,34.62,0,0,1-9.37,11.68c-4.78,3.74-10.41,6.06-15.83,8.7-3.05,1.49-6.27,2.66-9.32,4.15a32,32,0,0,1-7,3c-1.68.38-2,1.1-1.1,2.62a2.93,2.93,0,0,1-.76,4.13,4.84,4.84,0,0,0-1.21,1.38c-5.36,9.16-10.72,18.32-16.74,27.07-3.9,5.67-7.67,11.45-12.68,16.24-1.6,1.54-3.31,3.63-5.43,3.75-3.71.2-7.36.81-11,1a7.92,7.92,0,0,0-6.09,2.68c-5.91,6.5-12.06,12.74-19.71,17.28-.65.4-1.87.94-1.32,1.8s1.57,0,2.31-.32c2.52-1.16,4.86-2.66,7.59-3.38,1.36-.35,2.81-.72,3.38.8s-.46,2.62-1.76,3.41a101.72,101.72,0,0,0-8.73,6.16,6,6,0,0,0-2.46,4.72,43.63,43.63,0,0,0,0,5.83c.32,4.41,3.51,7.36,7.63,6.78,3.56-.49,7.59-.71,9-4.92a13.25,13.25,0,0,1,5.54-6.65c3.52-2.41,7.09-4.76,10.56-7.25,5.35-3.83,10.85-7.53,14.52-13.19,2-3.12,4.11-6.08,7.27-8.26,4-2.73,6.84-6.73,10.54-9.83,4.87-4.1,10.35-7.43,14.85-12,2.33-2.35,4-1.47,4.37,1.33s1.87,5.35,3.3,7.83c1.92,3.36,4.84,5.77,7.66,8.29,1.13,1,1.66,2.25.45,3.42-2.25,2.15-4.09,4.66-6.49,6.68s-5.66,3.39-6.27,7.09a2.62,2.62,0,0,1-1.18,1.39c-6.43,4.31-12.79,8.65-20.19,11.34-4.31,1.56-8.83,3-12.39,6.18-1.19,1.05-3.06,2.14-2.33,3.88.59,1.41,2.24,1.41,3.73,1.4h.65c10.33.17,20.65-.08,31-.44a4.92,4.92,0,0,0,4.23-2c1.78-2.48,3.93-2.39,5.74.17a2.86,2.86,0,0,0,2.73,1.37,27.69,27.69,0,0,1,4,0A5.41,5.41,0,0,0,236,430.1c1.61-2.28,3.17-4.58,4.69-6.92a2.75,2.75,0,0,1,2-1.48c1.3-.13,1.82-1,2.27-2,1.58-3.65,4-6.85,5.92-10.28,1.21-2.1,2.84-2.38,4.93-1.44a81.29,81.29,0,0,0,15.95,5c3.31.72,6.63,1.64,10.08,1.44.9.17,1.79.4,2.7.52,3.83.5,4.89-.82,3.74-4.61,0-.62,0-1.24,0-1.86,0-3,.75-3.53,3.36-2.08a3.3,3.3,0,0,0,3.08.24c4.22-1.64,4.87-1.09,4.22,3.43,0,.23-.09.46-.14.69-.66,3.37.18,4.53,3.44,5.22,5.27,1.1,10.47-.12,15.7-.36a5.32,5.32,0,0,0,2.86-.86c2.36-1.63,2.49-1.65,3.47,1,.65,1.73,1.67,2.06,3.24,1.33.77-.35,1.59-.61,2.36-1a4.4,4.4,0,0,1,4.59.26,19,19,0,0,0,6.5,2.45c4.41.79,8.83,1.66,13.27,2.18a63.51,63.51,0,0,0,16.24.13c1.56-.23,2.5-1.08,2.23-2.64-.46-2.54-.2-5.11-.63-7.63-.63-3.72-.34-4.59,3-6.45a2.4,2.4,0,0,0,1.49-2.55c-.19-2.16-.34-4.33-.37-6.5-.1-8.84-.16-17.7-.23-26.55,0-.93.06-1.86.06-2.79q0-38.85,0-77.68c0-7.22.05-14.45,0-21.67a6.3,6.3,0,0,1,1.2-3.9,112,112,0,0,0,6.37-10.28c1.42-2.46,2.5-2.46,3.89,0a29.5,29.5,0,0,0,7.05,8.56c3.06,2.52,6.12,5,9.35,7.32a3.1,3.1,0,0,1,1.65,3.08c-.25,1.87.68,3.27,1.87,4.57.47.5,1.22,1.06,1.24,1.61.07,2.74,2,3.78,4,4.88,2.26,1.21,2.42,2.33.54,4.09-1.39,1.3-1.24,2.22-.18,3.73,1.49,2.14,3,4.87,2.52,7.23-.81,3.86-.33,7.86-1.64,11.6-.67,1.62-1.37,3.22-2,4.84-1.24,3.27-3.14,6.3-3.57,9.86a.32.32,0,0,0-.2.21c-.24,0-.35.1-.25.35-1.85,7.66-1.51,15.31-.17,23a82.54,82.54,0,0,1,1.42,17.55c-.74,1.15-.35,2.41-.36,3.62,0,3.56.24,7.23-1.41,10.47a4.6,4.6,0,0,0,.65,5.7,5.29,5.29,0,0,1,1.13,5.61c-.77,2-1.33,4.11-2.69,5.88-.34.46-1.28,1.13-.17,1.91,2.49,1.77,2.84,2.89,1.86,6-.7,2.23-1.39,4.39-.41,6.75a2.2,2.2,0,0,1-.24,2.23c-2.13,2.43-.4,4.85.76,6.47a8,8,0,0,1,1.44,4.59c.13,1.62-.74,3.44.77,4.83,1.41,2.47,3.7,3.07,6.72,1.76a10.15,10.15,0,0,1,5.76,1.39,5.46,5.46,0,0,0,2.69.57c5,.15,9.91,0,14.86-.12,3.42-.09,6.85-.18,10.27-.18a7.56,7.56,0,0,0,4-1.17A2.92,2.92,0,0,0,456,428a5.81,5.81,0,0,0-3-4c-3.52-1.64-6.92-3.51-10.39-5.25a5.46,5.46,0,0,1-3.28-5c-.22-2.61.14-5.23-.61-7.92a19,19,0,0,1-.92-7.74c.49-3,.38-6.35,2.2-9.19.86-1.35.8-3.09.86-4.74.13-3.27-.74-6.47-.45-9.75.63-7,1.16-14,1.73-21a59.33,59.33,0,0,1,.92-9.08c1-4.51,1.38-9.14,2-13.73l.06-.07c2.8-.13,3.7-1.51,3.86-4.37.18-3.24.37-6.65,2.2-9.59,3.06-1.5,3.67-1.41,6.14.92a145.09,145.09,0,0,1,6.33,14.67,5.07,5.07,0,0,0,3.42,3.44,34.82,34.82,0,0,0,8.64,4.28,28,28,0,0,0,8.27,3.65c1.94.57,2.57-.27,2.28-2.12a10.31,10.31,0,0,0-1.5-3.37c-3.63-6.53-9.16-11.92-9.78-20.19-.68-9.18-4.66-17.55-8.9-25.67a48.55,48.55,0,0,1-1.41-5.39c-1.39-9.43-2.78-18.87-4-28.33-1.24-9.62-3.11-19.15-4.14-28.8-.34-3.18-.08-6.36-.55-9.52-.62-4.21-1.09-8.45-1.58-12.68-.59-5-.89-10.19-5.64-13.49a2.06,2.06,0,0,1-.33-.33,8.66,8.66,0,0,0-10.1-1.33,2.48,2.48,0,0,0-1.78.85l-.05,0c-1.68.5-3.4.92-5,1.54-2.58,1-5.38,1-8,1.87a22.74,22.74,0,0,0-2.86,0,14.52,14.52,0,0,1-4.55-.3l-1.68-2.45c-.66-1.05-1.33-2.08-2-3.14-2.25-3.71-4.7-7.34-5.59-11.68-2.1-10.37-4.2-20.75-6.2-31.14-1-5.31-1.8-10.67-2.52-16-.83-6.12-2-12.19-3-18.29-.28-1.8.83-3.08,2.52-2.79,2.38.4,4.8.49,7.12,1,4.7,1.09,9.54.55,14.26,1.57,3.6.79,7.35.88,11,1.32a108.49,108.49,0,0,0,18.09,1c6-.29,11.88-1,17.79.46,3.25.81,5,.22,5.64-2,.7-2.5.95-5.11,1.4-7.68.38-3-.11-5.66-3.09-7.4a4.36,4.36,0,0,1-1.52-2.54c-1-3.54-3.49-5.54-6.59-7.08a12.1,12.1,0,0,1-2.72-1.74c-4.25-3.69-8.34-7.56-12.79-11a44.16,44.16,0,0,1-7-6.28c-1.15-1.42-1.88-2.81-4-1.72-.85.42-1.79-.15-2.65-.55s-2.07-1.24-3-1.11c-3.51.48-5.92-1.44-8.4-3.35a9.89,9.89,0,0,0-2.26-1.11c-2.73-1.13-4.7-2.77-4.7-6.17a11.86,11.86,0,0,0-4-9.49c-2.33-2-2.47-2.24-4.51,0C403,50,400.33,53.4,395.36,52.76c-.73-.09-1.92-.49-2.36.35s.35,1.8.9,2.5c.81,1,1.33,2.56.43,3.12-2.26,1.38-1.83,2.92-1.25,4.93.39,1.37.2,2.91.57,4.35a1.88,1.88,0,0,1-.94,2.2c-.88.5-2.12.74-2.61.07-1.72-2.36-3.27-1.07-4.93-.09a61.72,61.72,0,0,1-33.94,9.14c-3.26-.09-6-2.57-9.34-3-.19,0-.36-.29-.51-.47a57.75,57.75,0,0,1-5.08-6.46c-.62-2.32-1.73-4.49-2-6.91.44-4-2.63-6.43-4.54-9.29-1-1.46-1.3-2.49-.09-3.88,2-2.28,3.89-4.62,5.76-7,.43-.54,1.36-1.22.66-2s-1.53-.08-2.16.3a47.08,47.08,0,0,0-6.61,4.3c-1.29,1.14-3.13,1.57-4.2.29-1.56-1.9-3.27-3.84-4.06-6.27-1.13-3.47-3.45-5.42-5.93-5.42a5.74,5.74,0,0,0-3.9,1.69"/></clipPath><linearGradient id="Nepojmenovaný_přechod_8" x1="-935.69" y1="65.01" x2="-934.85" y2="65.01" gradientTransform="matrix(0, 501.67, 501.67, 0, -32305.9, 469460.12)" gradientUnits="userSpaceOnUse"><stop offset="0" stop-color="#ba9774"/><stop offset="0.51" stop-color="#feebda"/><stop offset="1" stop-color="#a37d58"/></linearGradient></defs><g id="Vrstva_2" data-name="Vrstva 2"><g id="Vrstva_1-2" data-name="Vrstva 1"><g class="cls-2"><path class="cls-3" d="M586,144.47Q548.69,99.94,481.35,69.85q-6,86.42-8.66,147.9-1.95,45.28-2.46,82.87c-1.27-2.86-2.68-5.67-4.13-8.45a48.55,48.55,0,0,1-1.41-5.39c-1.39-9.43-2.77-18.87-4-28.33-1.25-9.62-3.12-19.15-4.15-28.8-.34-3.18-.08-6.36-.55-9.52-.62-4.21-1.09-8.45-1.58-12.68-.58-5-.89-10.18-5.64-13.49a2.06,2.06,0,0,1-.33-.33,8.66,8.66,0,0,0-10.1-1.33,2.52,2.52,0,0,0-1.78.85l-.05,0c-1.68.5-3.4.92-5,1.54-2.58,1-5.38,1-8,1.87-2.46-.21-5,.38-7.41-.3l-1.68-2.45c-.66-1.05-1.33-2.08-2-3.14-2.25-3.71-4.7-7.34-5.59-11.68-2.1-10.37-4.2-20.74-6.2-31.14-1-5.31-1.8-10.67-2.52-16-.82-6.12-2-12.19-3-18.29-.28-1.8.83-3.08,2.53-2.79,2.37.4,4.79.49,7.11,1,4.7,1.1,9.54.55,14.26,1.57,3.6.79,7.35.88,11,1.32a108.49,108.49,0,0,0,18.09,1c5.95-.29,11.88-1,17.8.46,3.25.81,5,.22,5.63-2,.7-2.5.95-5.11,1.4-7.68.38-3-.11-5.66-3.09-7.4a4.36,4.36,0,0,1-1.52-2.54c-1-3.54-3.49-5.54-6.59-7.08a12.47,12.47,0,0,1-2.72-1.74c-4.25-3.69-8.34-7.56-12.79-11a44.16,44.16,0,0,1-7-6.28c-1.15-1.42-1.88-2.81-4-1.72-.85.42-1.79-.15-2.65-.55s-2.07-1.24-3-1.11c-3.51.48-5.92-1.44-8.4-3.35a9.89,9.89,0,0,0-2.26-1.11c-2.73-1.13-4.7-2.77-4.7-6.17,0-3.63-1-6.89-4-9.49-2.33-2-2.47-2.24-4.51,0C403,50,400.33,53.4,395.36,52.76c-.73-.09-1.92-.49-2.36.35s.35,1.8.9,2.5c.81,1,1.33,2.56.43,3.12-2.26,1.39-1.83,2.92-1.25,4.93.39,1.37.2,2.91.57,4.35a1.88,1.88,0,0,1-.94,2.2c-.88.5-2.12.75-2.61.07-1.72-2.36-3.26-1.07-4.93-.09a61.72,61.72,0,0,1-33.94,9.14c-3.26-.09-6-2.57-9.34-3-.19,0-.36-.29-.51-.47a57.75,57.75,0,0,1-5.08-6.46c-.62-2.32-1.73-4.49-2-6.91.44-4-2.63-6.43-4.54-9.29-1-1.46-1.3-2.49-.09-3.88,2-2.28,3.89-4.62,5.76-7,.43-.54,1.36-1.22.66-2s-1.53-.08-2.16.3a47.08,47.08,0,0,0-6.61,4.3c-1.29,1.14-3.13,1.57-4.2.29-1.56-1.9-3.27-3.84-4.06-6.27-1.73-5.29-6.22-7.06-9.83-3.73a13.44,13.44,0,0,1-4.57,2.65c-5,1.86-10.27,2.78-15.3,4.55-3.6,1.27-6,4.19-5.7,8,1.44,5.34,4.41,9.92,7.32,14.52,0,.82.8,1.62.19,2.44-1.18,1.59-1.8,3.55-3.29,5a25.37,25.37,0,0,0-4.28,4.8,7.29,7.29,0,0,0-.83,1.11c-.46.92-1.68,1.83-.85,2.89s2.19.38,3.25,0a35.86,35.86,0,0,0,8-4.12c1-.68,2.11-1.37,3.42-.61l.88,1.1c0,2.71.42,5.43-.18,8.1-.18.85-.24,1.53.42,2.11a1.87,1.87,0,0,0,2.35,0c2.72-1.42,3.17-1,3.57,1.94.27,2,.46,4.3,3.46,4.32,1.19,0,1.78.86,1.67,2a2.33,2.33,0,0,0,1.49,2.63c3.27,1.16,3.43,2.22,6.29-.85a10.78,10.78,0,0,1,7.37-3.84,3.64,3.64,0,0,1,3.51,1.22c.85,1.1.09,2-.43,3a4,4,0,0,0-.8,1.89c.28,3.76-2,6.34-4,9.09-4,4-8.89,6.62-13.5,9.68,0,.2,0,.4.05.6l0,0,0,0c0-.2,0-.4-.05-.6l-.54.6a1.37,1.37,0,0,0-1.49.71l-.06.06c-.42-.19-.54.14-.69.41l-.55.63c-.35,0-.73,0-.83.43-3.32,1.26-4.74,3.56-4.29,7.16.23,1.77.66,3.67-.47,5.37a1.53,1.53,0,0,0-.93,1l-.05.05A13.34,13.34,0,0,0,296,138c-1,1-2.35,1.6-3.57,1-3-1.43-5.89-3.14-8.82-4.74-2.76-5.14-2-9.78,2.37-14,1.67-1.61,3.53-3,5.1-4.72s1.4-3.16-.45-4.46a3.17,3.17,0,0,1-1.46-2.47,6.51,6.51,0,0,0-3.78-5.86c.13-.83-.15-1.7.32-2.51,1.76-3.06,1.68-3.18-2-3.19s-7.21-2.09-7.86-5c-.8-3.57-3.31-5.37-6.1-7.17-3.26-2.1-7.12-1.92-10.59-3.14a9.16,9.16,0,0,0-5.83,0c-5.81,1.64-10.1,5.41-13.82,9.84a24,24,0,0,0-5.41,10.14,4.91,4.91,0,0,0-.93,2.86,5.85,5.85,0,0,0-.8,2.79c-.65,4-.47,7.79,2.11,11.1,2.44,3.13,4.3,6.62,6.43,10,.92,1.44,1.05,2.49-.42,3.55-2,1.44-2.25,3.43-1.51,5.61.53,1.54,1.13,3.05,1.78,4.53.51,1.14.81,2.51.1,3.35-1.55,1.84-.83,3.33.1,5,.59,1.08,1,2.27,1.5,3.4.3.7.4,1.82,1.18,1.86,1,0,.91-1.25,1.34-1.92a2.52,2.52,0,0,0,.33-1.11,5.62,5.62,0,0,1,2.89-4.67,4.2,4.2,0,0,0,2.18-4.73,3,3,0,0,1,1-3.16,13.8,13.8,0,0,0,3.84-5.18c.71-1.43,2.08-2,3.29-1.24,2.34,1.54,4.4,3.49,4.53,6.62.24,6.26.5,12.5-.34,18.76-.38,2.9-1,6.13,1.1,8.75,2.3,2.84,3.91,6.17,6.48,8.8.68.7,1.43,1.62.91,2.71-1.15,2.36-2.06,5-3.72,6.91a15.71,15.71,0,0,0-3.35,7.55c-.63,3.35-.64,6.7,2.43,9.38,2.34,2,4.64,4.11,7.05,6.08,1.36,1.1,2.41,2.51,4.17,3.24a24.46,24.46,0,0,0,10.39,1.85,6.91,6.91,0,0,0,6.92-7.34c-.1-2.59.34-3,3-2.43a16.05,16.05,0,0,0,7.36-.09c2.42-.63,3.29.08,3.17,2.6-.09,1.71-.25,3.41-.3,5.11-.16,4.74-1.52,8.5-5.54,11.82a31.82,31.82,0,0,0-10.88,16.67c-.93,3.59-2,7.13-1.87,10.9a5.09,5.09,0,0,1-1.45,3.55c-.81.92-2.19,1.46-2.2,3a2.63,2.63,0,0,1-2.43,2.68c-2.07.3-2.78,1.73-3.1,3.49-.19,1.08-.27,2.28-1.13,3-2.29,1.82-3.67,4.38-5.6,6.48-4,4.41-8.75,8.16-12.59,12.77-1.36,1.36-1.57,3.35-2.68,4.84a109.84,109.84,0,0,0-9.53,15.95,34.5,34.5,0,0,1-9.37,11.68c-4.78,3.74-10.41,6.06-15.83,8.7-1.33.65-2.7,1.24-4.06,1.82.1-1.86.16-3.73.16-5.63q0-33.79-37.1-98-8.81-15.1-13.08-23a144.38,144.38,0,0,1-12.67-28.59A86.82,86.82,0,0,1,153.2,149q0-27,21.62-53.79T241,40.56L221.53,29.72q-70.47,24.87-105.3,53.14T81.4,143.24q0,22.75,15.88,49.32T151.87,260q9.06,9.15,13.61,24.56T170,321.4q0,29.78-15.74,51.34t-47.51,35.4l4.8,23.82q10.72-3.06,20.37-6.57a40.41,40.41,0,0,0,0,4.67c.32,4.41,3.51,7.36,7.63,6.78,3.56-.49,7.59-.71,9.06-4.92a13.19,13.19,0,0,1,5.53-6.65c3.52-2.41,7.09-4.76,10.56-7.25,5.35-3.83,10.85-7.53,14.52-13.19,2-3.12,4.11-6.08,7.27-8.26,4-2.73,6.84-6.73,10.54-9.83,4.87-4.1,10.35-7.43,14.85-12,2.33-2.35,4-1.47,4.37,1.33s1.87,5.35,3.3,7.83c1.92,3.36,4.84,5.77,7.66,8.29,1.13,1,1.66,2.25.45,3.42-2.25,2.15-4.09,4.66-6.49,6.68s-5.66,3.39-6.27,7.09a2.66,2.66,0,0,1-1.18,1.39c-6.43,4.31-12.79,8.65-20.19,11.33-4.31,1.57-8.83,3-12.4,6.19-1.18,1.05-3,2.14-2.32,3.88s2.76,1.37,4.38,1.4c10.33.17,20.65-.08,31-.44a4.92,4.92,0,0,0,4.23-2c1.78-2.48,3.93-2.39,5.74.17a2.87,2.87,0,0,0,2.74,1.37,27.55,27.55,0,0,1,4,0A5.41,5.41,0,0,0,236,430.1c1.61-2.28,3.17-4.58,4.69-6.92a2.75,2.75,0,0,1,2-1.48c1.3-.13,1.82-1,2.27-2,1.58-3.65,3.94-6.85,5.92-10.28,1.22-2.1,2.84-2.38,4.93-1.44a81.29,81.29,0,0,0,15.95,5c3.31.72,6.63,1.64,10.08,1.44.9.17,1.79.4,2.7.52,3.83.5,4.89-.82,3.74-4.61,0-.62,0-1.24,0-1.86,0-3,.75-3.53,3.36-2.08a3.29,3.29,0,0,0,3.07.24c4.23-1.64,4.88-1.09,4.23,3.43,0,.23-.09.46-.14.69-.66,3.37.18,4.53,3.44,5.22,5.27,1.1,10.47-.12,15.7-.36a5.3,5.3,0,0,0,2.86-.86c2.36-1.63,2.49-1.65,3.47,1,.65,1.73,1.67,2.06,3.24,1.33.77-.35,1.59-.61,2.36-1a4.42,4.42,0,0,1,4.6.26,19,19,0,0,0,6.49,2.45c4.42.79,8.83,1.66,13.27,2.18a63.51,63.51,0,0,0,16.24.13c1.56-.23,2.5-1.08,2.23-2.64-.46-2.54-.2-5.11-.63-7.63-.63-3.72-.34-4.59,3-6.45a2.4,2.4,0,0,0,1.49-2.55c-.19-2.16-.34-4.33-.36-6.5-.11-8.84-.17-17.7-.24-26.55,0-.93.06-1.86.07-2.79q0-38.85,0-77.68c0-7.22.05-14.45,0-21.67a6.3,6.3,0,0,1,1.2-3.9,112,112,0,0,0,6.37-10.28c1.42-2.46,2.5-2.46,3.89,0a29.5,29.5,0,0,0,7.05,8.56c3.06,2.52,6.12,5,9.35,7.32a3.09,3.09,0,0,1,1.65,3.08c-.24,1.87.68,3.27,1.87,4.57.47.5,1.22,1.06,1.24,1.61.07,2.74,2,3.78,4,4.88,2.26,1.21,2.42,2.33.54,4.09-1.39,1.3-1.24,2.22-.18,3.73,1.49,2.14,3,4.87,2.52,7.23-.81,3.86-.33,7.87-1.64,11.6-.67,1.62-1.37,3.22-2,4.84-1.24,3.27-3.14,6.3-3.56,9.86a.32.32,0,0,0-.21.21c-.24,0-.35.1-.25.35-1.86,7.66-1.51,15.31-.17,23a82.54,82.54,0,0,1,1.42,17.55c-.73,1.14-.35,2.41-.36,3.62,0,3.56.24,7.23-1.41,10.47a4.6,4.6,0,0,0,.65,5.7,5.29,5.29,0,0,1,1.13,5.61c-.76,2-1.33,4.11-2.69,5.88-.34.46-1.28,1.13-.17,1.91,2.49,1.77,2.84,2.89,1.86,6-.7,2.23-1.39,4.39-.42,6.75a2.18,2.18,0,0,1-.23,2.23c-2.13,2.43-.4,4.85.76,6.47a8,8,0,0,1,1.44,4.59c.13,1.62-.74,3.44.77,4.83,1.41,2.47,3.7,3.07,6.72,1.76a10.15,10.15,0,0,1,5.76,1.39,5.46,5.46,0,0,0,2.69.57c8.38.25,16.75-.3,25.13-.3a7.56,7.56,0,0,0,4-1.17A2.91,2.91,0,0,0,456,428a5.8,5.8,0,0,0-3-4c-3.52-1.64-6.92-3.51-10.39-5.25a5.48,5.48,0,0,1-3.29-5c-.21-2.61.15-5.23-.6-7.92a19,19,0,0,1-.92-7.74c.49-3,.38-6.35,2.2-9.19.86-1.35.8-3.09.86-4.74.13-3.27-.74-6.47-.45-9.75.63-7,1.16-14,1.73-21a59.33,59.33,0,0,1,.92-9.08c1-4.51,1.38-9.14,2-13.73l.06-.07c2.8-.13,3.71-1.51,3.86-4.37.18-3.24.37-6.65,2.2-9.59,3.06-1.5,3.67-1.41,6.14.92a145.09,145.09,0,0,1,6.33,14.67,5.07,5.07,0,0,0,3.42,3.44c1,.61,2,1.22,3,1.79q.07,21.45.46,41.69.48,25.29,1.44,49.81,74.09-46.74,112.68-95.41t38.6-94.83q0-49.62-37.28-94.17m-177.47-68c.29-.79,1-.62,2-.62,3.81,1.83,9,1.76,12.09,5.57,1.52,1.85,2.22,4.5,2.9,6.9.44,1.55-1,1.52-2,1.14a11.43,11.43,0,0,1-5.85-4.75c-1.07-1.78-2.1-3.19-4.52-3.47-1.46-.17-2.85-1.46-4.15-2.42a2,2,0,0,1-.48-2.35M558.68,302q-17.2,31.52-53.76,67.72l5.53-244.84,1.93.77q32.22,26.63,47.86,54.69a120.44,120.44,0,0,1,15.63,59.49q0,30.65-17.19,62.17" transform="translate(43.76 120.35)"/></g><path class="cls-4" d="M241,40.56q-44.58,27.86-66.19,54.63T153.2,149a86.82,86.82,0,0,0,4.14,25.4A144.38,144.38,0,0,0,170,203q4.28,7.88,13.08,23,37.1,64.2,37.1,98,0,38.49-27.09,65.48T111.56,432l-4.8-23.82q31.76-13.81,47.51-35.4T170,321.4q0-21.47-4.53-36.88T151.87,260q-38.72-40.81-54.58-67.4T81.4,143.24q0-32.1,34.83-60.38t105.3-53.14Z" transform="translate(43.76 120.35)"/><path class="cls-4" d="M481.35,69.85Q548.7,99.94,586,144.47t37.28,94.17q0,46.17-38.6,94.83T472,428.88q-1-24.53-1.44-49.81t-.48-52.5q0-47.31,2.64-108.82t8.66-147.9m23.57,299.83q36.55-36.21,53.76-67.72t17.19-62.17a120.44,120.44,0,0,0-15.63-59.49q-15.65-28.06-47.86-54.69l-1.93-.77Z" transform="translate(43.76 120.35)"/><rect class="cls-1" x="43.76" y="120.35" width="704" height="497.78"/><g class="cls-5"><rect class="cls-6" x="53.96" y="-28.24" width="509.76" height="527.47" transform="translate(-32.61 306.32) rotate(-30)"/></g></g></g></svg>